<svg data-name="Layer 1" xmlns="http://www.w3.org/2000/svg" viewBox="0 0 122.88 121.83"><path d="M102.42 37H81.93a8.52 8.52 0 01-8.85-8.7V7.53H21a.58.58 0 00-.41.18.45.45 0 00-.18.42v105.58a.7.7 0 00.18.41.48.48 0 00.41.18h80.84c.19 0 .17-.09.27-.18s.33-.28.33-.41V37zm7.47 79.08a5.77 5.77 0 01-5.76 5.76H18.66a5.77 5.77 0 01-5.76-5.76V5.76a5.7 5.7 0 011.69-4.07A5.77 5.77 0 0118.66 0H76.9a4.22 4.22 0 012.46.82l29.75 30.12a2.57 2.57 0 01.78 2.6v82.53zM80 27.69l-.43-18.06L100.66 31l-18.14-.81a2.41 2.41 0 01-2.52-2.5z" fill-rule="evenodd"/><path d="M6.71 46.28h109.46a6.73 6.73 0 016.71 6.72v45.1a6.73 6.73 0 01-6.71 6.71H6.71A6.73 6.73 0 010 98.09V53a6.73 6.73 0 016.71-6.71z" fill="red" fill-rule="evenodd"/><path d="M12.88 80.88l9.24-.58a7 7 0 001.23 3.42 5.16 5.16 0 004.3 1.9 4.75 4.75 0 003.21-1A3 3 0 0032 82.38a2.91 2.91 0 00-1.07-2.19c-.71-.65-2.37-1.25-5-1.83q-6.4-1.44-9.13-3.82a7.68 7.68 0 01-2.75-6.08 8.22 8.22 0 011.41-4.58 9.17 9.17 0 014.23-3.4 19.89 19.89 0 017.75-1.23q6 0 9.21 2.25c2.11 1.5 3.37 3.88 3.77 7.16l-9.16.54a5 5 0 00-1.53-3.12 5 5 0 00-3.24-1 4 4 0 00-2.56.71 2.23 2.23 0 00-.86 1.76 1.78 1.78 0 00.7 1.35A7.78 7.78 0 0027 70.09a40.72 40.72 0 019.14 2.79 9.64 9.64 0 014 3.49A8.83 8.83 0 0141.45 81a10 10 0 01-1.67 5.59 10.52 10.52 0 01-4.69 3.88 18.9 18.9 0 01-7.58 1.32q-8 0-11.13-3.09a12.23 12.23 0 01-3.5-7.86zm30.39-21.1h10.17l7.11 22.69 7-22.69h9.88L65.73 91.3H55.18L43.27 59.78zM94.94 79.9v-6.56H110v13.41a31.11 31.11 0 01-7.64 4 25.91 25.91 0 01-7.88 1.06 19.24 19.24 0 01-9.15-1.91 13 13 0 01-5.48-5.7 18.63 18.63 0 01-1.95-8.68 18.2 18.2 0 012.13-9 13.84 13.84 0 016.23-5.79 20.28 20.28 0 018.63-1.53 23.86 23.86 0 017.8 1 10 10 0 014.3 2.93 13 13 0 012.57 5l-9.38 1.69a5.1 5.1 0 00-2-2.74 6.09 6.09 0 00-3.54-1 6.36 6.36 0 00-5.1 2.23c-1.27 1.48-1.9 3.83-1.9 7q0 5.11 1.92 7.31a6.76 6.76 0 005.44 2.3 10.06 10.06 0 003.11-.47 17.86 17.86 0 003.39-1.6V79.9z" fill="#fff"/></svg>